<?xml version="1.0" encoding="UTF-8"?>
<svg xmlns="http://www.w3.org/2000/svg" width="40" height="52" viewBox="0 0 40 52">

        <rect x="12" y="22" width="16" height="18" fill="#4a6830"></rect>
        <rect x="12" y="6" width="16" height="18" rx="2" fill="#c0906a"></rect>
        <rect x="10" y="4" width="20" height="12" rx="2" fill="#385228"></rect>
        <rect x="10" y="4" width="20" height="5" rx="2" fill="#2a4020"></rect>
        <rect x="14" y="10" width="4" height="4" fill="#1a0808" rx="0.5"></rect><rect x="22" y="10" width="4" height="4" fill="#1a0808" rx="0.5"></rect>
        <rect x="4" y="20" width="8" height="14" rx="1" fill="#4a6830"></rect>
        <rect x="6" y="20" width="4" height="14" fill="#5a3a10" rx="1"></rect>
        <rect x="12" y="38" width="6" height="13" fill="#2a3c1c" rx="1"></rect>
        <rect x="22" y="38" width="6" height="13" fill="#2a3c1c" rx="1"></rect>
        <rect x="11" y="48" width="8" height="4" fill="#1a2410" rx="1"></rect>
        <rect x="21" y="48" width="8" height="4" fill="#1a2410" rx="1"></rect>
        <rect x="12" y="36" width="16" height="3" fill="#8b6914"></rect>
        <rect x="18" y="35" width="4" height="4" fill="#c8a040" rx="0.5"></rect>
        <path d="M33 7 Q41 26 33 45" stroke="#8b6914" stroke-width="2.5" fill="none"></path>
        <line x1="33" y1="7" x2="33" y2="45" stroke="#c8a050" stroke-width="1.2"></line>
        <line x1="18" y1="26" x2="33" y2="26" stroke="#8b6914" stroke-width="1.5"></line>
        <polygon points="33,23 38,26 33,29" fill="#c8a050"></polygon>
      
</svg>
