<?xml version="1.0" encoding="UTF-8"?>
<svg xmlns="http://www.w3.org/2000/svg" width="52" height="64" viewBox="0 0 52 64">
<text x="26" y="6" text-anchor="middle" font-size="8" fill="#f0c040">♛</text><rect x="3" y="10" width="7" height="14" fill="#2e4890" rx="1"></rect><rect x="42" y="10" width="7" height="14" fill="#2e4890" rx="1"></rect><rect x="8" y="8" width="36" height="26" rx="3" fill="#4060b0"></rect><rect x="12" y="13" width="8" height="8" fill="#ffaa00" rx="1"></rect><rect x="32" y="13" width="8" height="8" fill="#ffaa00" rx="1"></rect><rect x="14" y="15" width="4" height="4" fill="#cc6600" rx="1"></rect><rect x="34" y="15" width="4" height="4" fill="#cc6600" rx="1"></rect><rect x="16" y="28" width="4" height="5" fill="#c0d0ff" rx="1"></rect><rect x="32" y="28" width="4" height="5" fill="#c0d0ff" rx="1"></rect><rect x="6" y="32" width="40" height="24" rx="2" fill="#4060b0"></rect><rect x="6" y="38" width="40" height="12" fill="#7a5c18"></rect><rect x="2" y="30" width="8" height="14" rx="2" fill="#2e4890"></rect><rect x="42" y="30" width="8" height="14" rx="2" fill="#2e4890"></rect><rect x="0" y="40" width="10" height="10" rx="2" fill="#2e5090"></rect><rect x="42" y="40" width="10" height="10" rx="2" fill="#2e5090"></rect><rect x="12" y="54" width="10" height="9" fill="#2e4890" rx="1"></rect><rect x="30" y="54" width="10" height="9" fill="#2e4890" rx="1"></rect><rect x="4" y="61" width="44" height="4" fill="#300" rx="1"></rect><rect x="4" y="61" width="44" height="4" fill="#c00" rx="1"></rect>
</svg>
