<?xml version="1.0" encoding="UTF-8"?>
<svg xmlns="http://www.w3.org/2000/svg" width="52" height="64" viewBox="0 0 52 64">
<text x="26" y="6" text-anchor="middle" font-size="8" fill="#f0c040">♛</text><path d="M 12 10 L 8 2 L 16 8" fill="#700"></path><path d="M 40 10 L 44 2 L 36 8" fill="#700"></path><rect x="3" y="10" width="7" height="14" fill="#862020" rx="1"></rect><rect x="42" y="10" width="7" height="14" fill="#862020" rx="1"></rect><rect x="8" y="8" width="36" height="26" rx="3" fill="#a83030"></rect><rect x="12" y="13" width="8" height="8" fill="#ffdd00" rx="1"></rect><rect x="32" y="13" width="8" height="8" fill="#ffdd00" rx="1"></rect><rect x="15" y="14" width="2" height="6" fill="#220000" rx="0.5"></rect><rect x="35" y="14" width="2" height="6" fill="#220000" rx="0.5"></rect><rect x="16" y="28" width="5" height="7" fill="white" rx="1"></rect><rect x="31" y="28" width="5" height="7" fill="white" rx="1"></rect><rect x="6" y="32" width="40" height="24" rx="2" fill="#a83030"></rect><rect x="6" y="38" width="40" height="12" fill="#7a3010"></rect><rect x="0" y="28" width="10" height="18" rx="2" fill="#862020"></rect><rect x="42" y="28" width="10" height="18" rx="2" fill="#862020"></rect><path d="M 0 28 L 5 22 L 10 28" fill="#c04040"></path><path d="M 42 28 L 47 22 L 52 28" fill="#c04040"></path><rect x="0" y="42" width="10" height="10" rx="2" fill="#962020"></rect><rect x="42" y="42" width="10" height="10" rx="2" fill="#962020"></rect><rect x="12" y="54" width="10" height="9" fill="#862020" rx="1"></rect><rect x="30" y="54" width="10" height="9" fill="#862020" rx="1"></rect><rect x="4" y="61" width="44" height="4" fill="#300" rx="1"></rect><rect x="4" y="61" width="44" height="4" fill="#c00" rx="1"></rect>
</svg>
