<?xml version="1.0" encoding="UTF-8"?>
<svg xmlns="http://www.w3.org/2000/svg" width="36" height="48" viewBox="0 0 36 48">
<rect x="4" y="6" width="5" height="10" fill="#a83030"></rect><rect x="27" y="6" width="5" height="10" fill="#a83030"></rect><rect x="8" y="4" width="20" height="18" rx="2" fill="#a83030"></rect><rect x="10" y="8" width="5" height="5" fill="#ffcc00"></rect><rect x="21" y="8" width="5" height="5" fill="#ffcc00"></rect><rect x="12" y="9" width="3" height="3" fill="#300"></rect><rect x="23" y="9" width="3" height="3" fill="#300"></rect><rect x="3" y="18" width="6" height="4" fill="#c84040" rx="1"></rect><rect x="27" y="18" width="6" height="4" fill="#c84040" rx="1"></rect><rect x="9" y="20" width="18" height="18" rx="1" fill="#a83030"></rect><rect x="9" y="24" width="18" height="10" fill="#7a3010"></rect><rect x="3" y="20" width="6" height="10" rx="1" fill="#a83030"></rect><rect x="27" y="20" width="6" height="10" rx="1" fill="#a83030"></rect><rect x="10" y="36" width="6" height="10" fill="#862020"></rect><rect x="20" y="36" width="6" height="10" fill="#862020"></rect>
</svg>
